<svg width="32" height="32" viewBox="0 0 32 32" fill="none" xmlns="http://www.w3.org/2000/svg">
  <rect width="32" height="32" rx="10" fill="url(#paint0_linear)"/>
  <path d="M16 23C16.8 23 17.5 22.8 18.1 22.4C18.7 22 19.1 21.4 19.3 20.6L23.8 8H20.6L17.4 18.1H17.3L14 8H10.8L15.3 20.7C15.5 21.4 15.1 22.1 14.5 22.5C13.9 22.9 13.1 23.1 12.3 23V25.2C13.5 25.3 14.6 25 15.5 24.4C16.4 23.8 17.1 22.9 17.6 21.8L16 23Z" fill="white"/>
  <defs>
    <linearGradient id="paint0_linear" x1="0" y1="0" x2="32" y2="32" gradientUnits="userSpaceOnUse">
      <stop stop-color="#4F46E5"/>
      <stop offset="1" stop-color="#DB2777"/>
    </linearGradient>
  </defs>
</svg>
